<svg width="366" height="120" viewBox="0 0 366 120" fill="none" xmlns="http://www.w3.org/2000/svg">
<path d="M3.8235 28.0295C3.61641 49.7055 3.75362 71.7132 6.76468 93.2256C7.31787 97.1778 7.74944 105.818 11.4215 104.255C15.9836 102.314 19.7511 89.926 21.3072 86.0769C23.2397 81.2964 25.0541 76.2375 26.6585 71.3301C27.1609 69.7932 28.3003 62.0604 29.5588 60.3824C30.7847 58.7478 29.4387 64.4671 29.3954 66.5099C29.191 76.1468 28.7279 85.8924 29.5588 95.5131C29.7535 97.7671 31.3486 115.517 37.3202 114.1C39.8802 113.492 41.861 108.206 42.4264 106.91C45.699 99.4084 47.7455 91.3134 49.0849 83.2582C51.7769 67.0699 52.527 49.7011 50.6372 33.3808C49.9399 27.3582 48.2609 21.737 45.7353 16.2648" stroke="#2EC1CA" stroke-width="7" stroke-linecap="round"/>
<path d="M64.1177 64.0589C64.1885 66.3015 67.5821 92.2157 73.1046 86.2811C76.7295 82.3857 78.133 74.7568 79.2321 69.8595C80.1511 65.7646 80.887 60.9677 81.2745 56.7876C81.609 53.1806 82.7643 46.6341 80.866 43.1438C77.5427 37.0331 70.0504 48.2077 69.0605 50.2925C65.4281 57.9425 65.1326 67.3273 65.8334 75.6193C66.3389 81.6021 67.6712 89.0539 74.1667 91.3465C82.2238 94.1901 83.8013 87.6254 86.9118 82.4412" stroke="#2EC1CA" stroke-width="7" stroke-linecap="round"/>
<path d="M93.5294 22.8824C88.0867 22.8824 87.091 21.3418 82.6634 18.0621C81.8964 17.494 80.86 12.93 82.214 12.6291C85.7878 11.835 90.1661 23.4676 90.5474 26.518C90.7679 28.2826 91.6176 28.9197 91.9771 30.3579C92.524 32.5454 92.0588 35.3173 92.0588 37.5883" stroke="#2EC1CA" stroke-width="7" stroke-linecap="round"/>
<path d="M125.147 46.4118C131.877 56.0257 132.997 92.6127 129.886 81.2974C125.574 65.619 134.468 45.7007 149.412 39.0588" stroke="#2EC1CA" stroke-width="7" stroke-linecap="round"/>
<path d="M158.235 62.5882C158.241 62.8076 158.226 68.3777 159.869 66.6732C163.694 62.7067 163.338 51.5502 163.791 46.4935C163.866 45.6513 165.359 35.8156 162.892 36.1177C157.798 36.7414 153.837 44.055 152.353 48.2909C149.597 56.1568 150.954 73.4079 159.134 78.2745C164.238 81.3113 170.998 79.3558 174.412 75.0882" stroke="#2EC1CA" stroke-width="7" stroke-linecap="round"/>
<path d="M201.618 3.76477C202.392 21.8436 210.114 39.0408 212.606 56.951C213.619 64.2324 214.118 71.4284 214.118 78.7648" stroke="#2EC1CA" stroke-width="7" stroke-linecap="round"/>
<path d="M214.853 58.1765C215.102 49.9536 219.449 44.3312 226.781 40.6929C229.576 39.306 236.673 34.8335 239.281 38.4053C246.075 47.7107 245 61.4358 245 71.4118" stroke="#2EC1CA" stroke-width="7" stroke-linecap="round"/>
<path d="M250.882 36.1177C257.156 44.1345 255.294 57.3317 255.294 67" stroke="#2EC1CA" stroke-width="7" stroke-linecap="round"/>
<path d="M249.412 21.4118V20.6765" stroke="#2EC1CA" stroke-width="7" stroke-linecap="round"/>
<path d="M267.794 34.6471C268.107 43.4015 271.195 51.7296 271.471 60.4641C271.485 60.9172 272.053 68.8103 270.408 66.0196C267.621 61.2898 266.319 51.7321 268.611 46.5752C270.938 41.34 277.334 37.8697 281.765 34.6471" stroke="#2EC1CA" stroke-width="7" stroke-linecap="round"/>
<path d="M289.118 35.3823C289.368 46.9011 290.588 58.4516 290.588 69.9411" stroke="#2EC1CA" stroke-width="7" stroke-linecap="round"/>
<path d="M288.382 21.4118C290.159 23.4099 290.588 22.7552 290.588 19.9412" stroke="#2EC1CA" stroke-width="7" stroke-linecap="round"/>
<path d="M308.235 32.4412C309.83 34.745 309.421 39.2602 309.542 41.8366C309.851 48.367 310.175 54.9108 310.4 61.4444C310.583 66.7417 310.4 62.7539 310.278 60.0555C309.995 53.8295 308.433 46.0277 311.83 40.366C316.072 33.2955 325.365 29.7997 331.029 36.9346C335.849 43.0051 339.118 52.5553 339.118 60.3823" stroke="#2EC1CA" stroke-width="7" stroke-linecap="round"/>
<path d="M355.294 51.5588C360.094 49.2854 361.402 37.2054 361.748 32.6046C362.064 28.4195 363.467 23.6838 358.072 25.9052C347.844 30.1167 342.862 40.1753 342.794 50.9052C342.757 56.6787 346.936 61.0605 351.985 56.0114C355.824 52.1729 356.088 47.8111 357.868 43.1846C358.009 42.8159 358.235 41.8008 358.235 42.817C358.235 47.0604 357.929 51.2716 357.377 55.4804C354.246 79.356 346.206 116.265 315.588 116.265" stroke="#2EC1CA" stroke-width="7" stroke-linecap="round"/>
</svg>
