<svg width="307" height="196" viewBox="0 0 307 196" fill="none" xmlns="http://www.w3.org/2000/svg">
<path d="M148.75 118.125V88.375C148.75 84.4583 150.5 80.6667 154 77C158.167 72.75 163.333 70.625 169.5 70.625V76.875C163.917 76.875 159.75 79.2083 157 83.875C155.833 85.9583 155.25 88 155.25 90V116.5C155.25 119.833 156.833 123 160 126C162.833 128.583 166 129.875 169.5 129.875V136.125C161.75 136.125 155.833 133 151.75 126.75C149.75 123.75 148.75 120.875 148.75 118.125ZM174.75 136.125V129.875C179.917 129.875 183.833 127.5 186.5 122.75C187.75 120.667 188.375 118.667 188.375 116.75V90C188.375 86.3333 186.792 83.0833 183.625 80.25C181.042 78 178.083 76.875 174.75 76.875V70.625C182.25 70.625 188 73.6667 192 79.75C193.917 82.75 194.875 85.625 194.875 88.375V118.125C194.875 122.125 193.167 125.958 189.75 129.625C185.75 133.875 180.75 136.042 174.75 136.125ZM202 78.25V71.875H210V48.25H216.5V71.875H224.5V78.25H216.5V115.875C216.5 122.792 218.833 127.083 223.5 128.75C225.417 129.333 227.625 129.625 230.125 129.625H230.625L232.125 136H229.5C219.417 135.917 213.292 132 211.125 124.25C210.375 121.583 210 118.417 210 114.75V78.25H202ZM237.25 118.125V88.25C237.333 84.3333 239.167 80.5833 242.75 77C246.833 72.75 251.875 70.625 257.875 70.625V76.75C253.125 76.75 249.208 78.875 246.125 83.125C244.542 85.2917 243.75 87.3333 243.75 89.25V99.125H277.75V89.25C277.75 85.0833 275.708 81.7083 271.625 79.125C269.042 77.4583 266.375 76.625 263.625 76.625V70.625C269.208 70.625 274.208 72.6667 278.625 76.75C282.292 80.25 284.167 84.0417 284.25 88.125V105.375H243.75V118.125C243.75 120.708 245.333 123.375 248.5 126.125C251.5 128.625 254.667 129.875 258 129.875V136C250.667 136 244.875 133 240.625 127C238.375 123.833 237.25 120.875 237.25 118.125ZM263.625 136V129.5C269.042 129.5 273.292 127.208 276.375 122.625C277.292 121.208 277.917 119.875 278.25 118.625L284.375 120.75C282.542 126.833 278.833 131.208 273.25 133.875C270.25 135.292 267.042 136 263.625 136ZM294.5 136V48.5H301.25V136H294.5Z" fill="white"/>
<line x1="22" y1="130.008" x2="22" y2="9.99231" stroke="white" stroke-width="10" stroke-linecap="round"/>
<path d="M4.99231 65.5L135.008 65.5" stroke="white" stroke-width="9" stroke-linecap="round"/>
<path d="M108 135.008L108 4.99231" stroke="white" stroke-width="10" stroke-linecap="round"/>
</svg>
