<svg width="549" height="204" viewBox="0 0 549 204" fill="#FFFFFF" xmlns="http://www.w3.org/2000/svg">
<path d="M21.504 143.528H52.736V153H9.856V63.784H21.504V143.528Z" fill="#FFFFFF"/>
<path d="M181.504 105.672C181.504 98.504 182.955 92.232 185.856 86.856C188.757 81.3947 192.725 77.1707 197.76 74.184C202.88 71.1973 208.555 69.704 214.784 69.704C220.928 69.704 226.261 71.0267 230.784 73.672C235.307 76.3173 238.677 79.6453 240.896 83.656V70.856H252.672V141H240.896V127.944C238.592 132.04 235.136 135.453 230.528 138.184C226.005 140.829 220.715 142.152 214.656 142.152C208.427 142.152 202.795 140.616 197.76 137.544C192.725 134.472 188.757 130.163 185.856 124.616C182.955 119.069 181.504 112.755 181.504 105.672ZM240.896 105.8C240.896 100.509 239.829 95.9013 237.696 91.976C235.563 88.0507 232.661 85.064 228.992 83.016C225.408 80.8827 221.44 79.816 217.088 79.816C212.736 79.816 208.768 80.84 205.184 82.888C201.6 84.936 198.741 87.9227 196.608 91.848C194.475 95.7733 193.408 100.381 193.408 105.672C193.408 111.048 194.475 115.741 196.608 119.752C198.741 123.677 201.6 126.707 205.184 128.84C208.768 130.888 212.736 131.912 217.088 131.912C221.44 131.912 225.408 130.888 228.992 128.84C232.661 126.707 235.563 123.677 237.696 119.752C239.829 115.741 240.896 111.091 240.896 105.8ZM268.004 105.672C268.004 98.504 269.455 92.232 272.356 86.856C275.257 81.3947 279.225 77.1707 284.26 74.184C289.38 71.1973 295.097 69.704 301.412 69.704C306.873 69.704 311.951 70.984 316.644 73.544C321.337 76.0187 324.921 79.304 327.396 83.4V46.28H339.172V141H327.396V127.816C325.092 131.997 321.679 135.453 317.156 138.184C312.633 140.829 307.343 142.152 301.284 142.152C295.055 142.152 289.38 140.616 284.26 137.544C279.225 134.472 275.257 130.163 272.356 124.616C269.455 119.069 268.004 112.755 268.004 105.672ZM327.396 105.8C327.396 100.509 326.329 95.9013 324.196 91.976C322.063 88.0507 319.161 85.064 315.492 83.016C311.908 80.8827 307.94 79.816 303.588 79.816C299.236 79.816 295.268 80.84 291.684 82.888C288.1 84.936 285.241 87.9227 283.108 91.848C280.975 95.7733 279.908 100.381 279.908 105.672C279.908 111.048 280.975 115.741 283.108 119.752C285.241 123.677 288.1 126.707 291.684 128.84C295.268 130.888 299.236 131.912 303.588 131.912C307.94 131.912 311.908 130.888 315.492 128.84C319.161 126.707 322.063 123.677 324.196 119.752C326.329 115.741 327.396 111.091 327.396 105.8ZM364.872 59.464C362.653 59.464 360.776 58.696 359.24 57.16C357.704 55.624 356.936 53.7467 356.936 51.528C356.936 49.3093 357.704 47.432 359.24 45.896C360.776 44.36 362.653 43.592 364.872 43.592C367.005 43.592 368.797 44.36 370.248 45.896C371.784 47.432 372.552 49.3093 372.552 51.528C372.552 53.7467 371.784 55.624 370.248 57.16C368.797 58.696 367.005 59.464 364.872 59.464ZM370.504 70.856V141H358.856V70.856H370.504ZM424.532 69.576C433.065 69.576 439.977 72.1787 445.268 77.384C450.559 82.504 453.204 89.928 453.204 99.656V141H441.684V101.32C441.684 94.3227 439.935 88.9893 436.436 85.32C432.937 81.5653 428.159 79.688 422.1 79.688C415.956 79.688 411.049 81.608 407.38 85.448C403.796 89.288 402.004 94.8773 402.004 102.216V141H390.356V70.856H402.004V80.84C404.308 77.256 407.423 74.4827 411.348 72.52C415.359 70.5573 419.753 69.576 424.532 69.576ZM501.159 69.704C507.218 69.704 512.508 71.0267 517.031 73.672C521.639 76.3173 525.052 79.6453 527.271 83.656V70.856H539.047V142.536C539.047 148.936 537.682 154.611 534.951 159.56C532.22 164.595 528.295 168.52 523.175 171.336C518.14 174.152 512.252 175.56 505.511 175.56C496.295 175.56 488.615 173.384 482.471 169.032C476.327 164.68 472.7 158.749 471.591 151.24H483.111C484.391 155.507 487.036 158.92 491.047 161.48C495.058 164.125 499.879 165.448 505.511 165.448C511.911 165.448 517.116 163.443 521.127 159.432C525.223 155.421 527.271 149.789 527.271 142.536V127.816C524.967 131.912 521.554 135.325 517.031 138.056C512.508 140.787 507.218 142.152 501.159 142.152C494.93 142.152 489.255 140.616 484.135 137.544C479.1 134.472 475.132 130.163 472.231 124.616C469.33 119.069 467.879 112.755 467.879 105.672C467.879 98.504 469.33 92.232 472.231 86.856C475.132 81.3947 479.1 77.1707 484.135 74.184C489.255 71.1973 494.93 69.704 501.159 69.704ZM527.271 105.8C527.271 100.509 526.204 95.9013 524.071 91.976C521.938 88.0507 519.036 85.064 515.367 83.016C511.783 80.8827 507.815 79.816 503.463 79.816C499.111 79.816 495.143 80.84 491.559 82.888C487.975 84.936 485.116 87.9227 482.983 91.848C480.85 95.7733 479.783 100.381 479.783 105.672C479.783 111.048 480.85 115.741 482.983 119.752C485.116 123.677 487.975 126.707 491.559 128.84C495.143 130.888 499.111 131.912 503.463 131.912C507.815 131.912 511.783 130.888 515.367 128.84C519.036 126.707 521.938 123.677 524.071 119.752C526.204 115.741 527.271 111.091 527.271 105.8Z" fill="#FFFFFF"/>
</svg>
