<svg width="805" height="109" viewBox="0 0 805 109" fill="none" xmlns="http://www.w3.org/2000/svg">
<path d="M73.088 25.416C74.112 25.416 75.136 25.5013 76.16 25.672C77.2693 25.8427 78.2507 26.1413 79.104 26.568C80.0427 26.9947 80.8107 27.592 81.408 28.36C82.0053 29.128 82.304 30.152 82.304 31.432C82.304 32.6267 81.9627 33.608 81.28 34.376C80.6827 35.144 79.9147 35.7413 78.976 36.168C78.0373 36.5947 77.0133 36.8933 75.904 37.064C74.7947 37.2347 73.8133 37.32 72.96 37.32H25.6V25.416H73.088ZM72.96 44.36C75.008 44.36 77.0133 44.1467 78.976 43.72C81.024 43.208 82.816 42.44 84.352 41.416C85.888 40.392 87.1253 39.0693 88.064 37.448C89.0027 35.7413 89.472 33.736 89.472 31.432C89.472 29.0427 89.0027 27.0373 88.064 25.416C87.2107 23.7093 86.016 22.344 84.48 21.32C83.0293 20.2107 81.28 19.4427 79.232 19.016C77.2693 18.504 75.2213 18.248 73.088 18.248H18.432V44.36H72.96ZM18.432 85.96H10.624V10.44H73.088C76.5867 10.44 79.8293 10.8667 82.816 11.72C85.8027 12.488 88.3627 13.7253 90.496 15.432C92.7147 17.0533 94.4213 19.2293 95.616 21.96C96.896 24.6053 97.536 27.7627 97.536 31.432C97.536 36.1253 96.4267 40.008 94.208 43.08C92.0747 46.0667 88.8747 48.4133 84.608 50.12V50.248C82.6453 50.9307 79.9147 51.4427 76.416 51.784C72.9173 52.1253 68.992 52.3813 64.64 52.552C60.3733 52.6373 55.8933 52.68 51.2 52.68C46.5067 52.68 42.0267 52.6373 37.76 52.552C33.4933 52.3813 29.6533 52.2533 26.24 52.168C22.8267 52.0827 20.224 52.04 18.432 52.04V85.96ZM104.704 31.432C104.704 26.568 103.936 22.3867 102.4 18.888C100.864 15.304 98.688 12.36 95.872 10.056C93.1413 7.752 89.8133 6.04533 85.888 4.936C82.048 3.82666 77.7813 3.272 73.088 3.272H3.456V93.128H25.6V59.08C27.648 59.08 30.2933 59.1227 33.536 59.208C36.864 59.2933 40.448 59.4213 44.288 59.592C48.128 59.6773 52.1387 59.72 56.32 59.72C60.5013 59.72 64.512 59.6347 68.352 59.464C72.2773 59.2933 75.904 58.9947 79.232 58.568C82.56 58.1413 85.3333 57.544 87.552 56.776V56.648C93.184 54.2587 97.4507 51.016 100.352 46.92C103.253 42.824 104.704 37.6613 104.704 31.432ZM0.256 96.328V0.0719986H73.088C76.416 0.0719986 79.6587 0.327998 82.816 0.839996C86.0587 1.26666 89.3013 2.248 92.544 3.784C95.872 5.23466 99.2853 7.32533 102.784 10.056C106.283 12.7867 109.952 16.4133 113.792 20.936C116.267 23.4107 117.973 26.696 118.912 30.792C119.851 34.888 120.32 39.368 120.32 44.232C120.32 51.144 118.699 56.8613 115.456 61.384C112.299 65.9067 107.605 69.5333 101.376 72.264C99.6693 72.8613 97.6213 73.3733 95.232 73.8C92.928 74.1413 90.368 74.44 87.552 74.696C84.736 74.952 81.7493 75.1227 78.592 75.208C75.52 75.2933 72.4053 75.336 69.248 75.336C64.64 75.336 60.0747 75.336 55.552 75.336C51.0293 75.336 46.2507 75.2933 41.216 75.208V108.744H13.44L0.256 96.328ZM202.575 58.184L175.567 19.912L147.919 58.184H202.575ZM188.751 51.272H161.615L175.311 32.072L188.751 51.272ZM221.647 85.96L207.823 66.12H142.415C140.026 69.3627 137.679 72.6907 135.375 76.104C133.156 79.432 130.852 82.7173 128.463 85.96H118.223C127.268 73.2453 136.271 60.6587 145.231 48.2C154.276 35.7413 163.279 23.1547 172.239 10.44H178.383L231.247 85.96H221.647ZM168.783 3.272L104.783 93.128H131.919L145.999 73.288H203.855L217.807 93.128H244.943L182.223 3.272H168.783ZM196.559 13.256L263.119 108.744H229.071L216.143 96.328L210.895 88.904H160.335C159.311 90.44 158.159 92.0613 156.879 93.768C155.684 95.4747 154.447 97.1813 153.167 98.888C151.972 100.68 150.778 102.387 149.583 104.008C148.388 105.715 147.279 107.293 146.255 108.744H112.079L98.511 96.328L167.119 0.0719986H183.887L196.559 13.256ZM339.362 25.416C340.386 25.416 341.453 25.5013 342.562 25.672C343.671 25.8427 344.695 26.1413 345.634 26.568C346.573 26.9947 347.341 27.592 347.938 28.36C348.621 29.128 348.962 30.152 348.962 31.432C348.962 32.6267 348.621 33.608 347.938 34.376C347.255 35.144 346.402 35.7413 345.378 36.168C344.439 36.5947 343.373 36.8933 342.178 37.064C341.069 37.2347 340.087 37.32 339.234 37.32H291.874V25.416H339.362ZM339.234 44.36C341.282 44.36 343.287 44.1467 345.25 43.72C347.298 43.208 349.133 42.44 350.754 41.416C352.375 40.392 353.655 39.0693 354.594 37.448C355.618 35.7413 356.13 33.736 356.13 31.432C356.13 29.0427 355.661 26.9947 354.722 25.288C353.783 23.5813 352.503 22.216 350.882 21.192C349.346 20.168 347.554 19.4427 345.506 19.016C343.543 18.504 341.495 18.248 339.362 18.248H284.834V44.36H339.234ZM350.882 50.12C349.687 50.8027 348.365 51.3147 346.914 51.656C345.463 51.9973 344.098 52.3387 342.818 52.68C347.597 58.312 352.375 63.8587 357.154 69.32C362.018 74.7813 366.882 80.328 371.746 85.96H361.378L331.81 52.04H284.834V85.96H276.898V10.44H339.362C342.861 10.44 346.103 10.824 349.09 11.592C352.162 12.36 354.765 13.5973 356.898 15.304C359.117 17.0107 360.823 19.1867 362.018 21.832C363.298 24.4773 363.938 27.6773 363.938 31.432C363.938 36.1253 362.871 40.008 360.738 43.08C358.605 46.0667 355.362 48.4133 351.01 50.12H350.882ZM371.106 31.432C371.106 26.568 370.338 22.3867 368.802 18.888C367.266 15.304 365.09 12.36 362.274 10.056C359.458 7.752 356.087 6.04533 352.162 4.936C348.322 3.82666 344.055 3.272 339.362 3.272H269.986V93.128H291.874V59.08H328.482L357.922 93.128H387.362L355.106 56.136C365.773 51.4427 371.106 43.208 371.106 31.432ZM266.786 96.328V0.0719986H339.362C342.69 0.0719986 345.89 0.327998 348.962 0.839996C352.034 1.26666 355.106 2.20533 358.178 3.656C361.335 5.10666 364.578 7.19733 367.906 9.92799C371.319 12.6587 374.946 16.2853 378.786 20.808C381.261 23.2827 383.181 26.6107 384.546 30.792C385.997 34.888 386.722 39.368 386.722 44.232C386.722 49.864 385.485 54.856 383.01 59.208C380.621 63.56 377.122 67.1013 372.514 69.832C375.159 72.904 377.933 76.104 380.834 79.432C383.735 82.76 386.637 86.1307 389.538 89.544C392.439 92.872 395.298 96.1573 398.114 99.4C401.015 102.728 403.746 105.843 406.306 108.744H369.442L356.514 96.328L337.826 74.696H307.49V108.744H279.97L266.786 96.328ZM431.557 44.36H496.709V52.04H431.557V78.152H510.021V85.96H423.621V10.44H509.893V18.248H431.557V44.36ZM438.597 25.416H517.061V3.272H416.453V93.128H517.189V70.984H438.597V59.08H503.749V37.32H438.597V25.416ZM413.253 96.328V0.0719986H520.261L532.677 13.256V41.032H513.093L519.365 47.304V67.784L532.805 80.968V108.744H426.437L413.253 96.328ZM632.784 85.96L563.792 22.6V85.96H556.24V10.44H562.768L631.504 73.8V10.44H639.184V85.96H632.784ZM646.352 93.128V3.272H624.464V57.672L565.2 3.272H549.072V93.128H570.96V38.6L630.352 93.128H646.352ZM545.872 96.328V0.0719986H566.352L621.264 50.376V0.0719986H649.552L661.968 13.256V108.744H642L586.576 57.928V108.744H559.056L545.872 96.328ZM731.266 85.96V18.248H688.386V10.44H781.954V18.248H738.946V85.96H731.266ZM745.986 93.128V25.416H788.994V3.272H681.346V25.416H724.226V93.128H745.986ZM678.146 28.616V0.0719986H792.194L804.61 13.256V41.032H761.602V108.744H734.21L721.026 96.328V41.032H691.33L678.146 28.616Z" fill="white"/>
</svg>
