<svg width="353" height="88" viewBox="0 0 353 88" fill="none" xmlns="http://www.w3.org/2000/svg">
<path d="M0.664 16.576V0.959999H64.664V16.576H41.624V88H23.96V16.576H0.664ZM125.895 88V51.904H93.511V88H75.847V0.959999H93.511V36.544H125.895V0.959999H143.559V88H125.895ZM162.472 88V0.959999H180.136V88H162.472ZM199.097 88V0.959999H228.921L249.913 72.64H251.193V0.959999H268.857V88H239.801L218.041 16.32H216.761V88H199.097ZM305.511 88H287.847V0.959999H305.511V39.232L317.287 37.952L331.623 0.959999H351.719L332.775 44.608L352.231 88H331.879L317.287 53.312L305.511 54.592V88Z" fill="white"/>
</svg>
